<?xml version="1.0" encoding="UTF-8"?>
<!DOCTYPE svg PUBLIC "-//W3C//DTD SVG 1.1//EN" "http://www.w3.org/Graphics/SVG/1.1/DTD/svg11.dtd">
<svg xmlns="http://www.w3.org/2000/svg" version="1.1" width="64px" height="55px" style="shape-rendering:geometricPrecision; text-rendering:geometricPrecision; image-rendering:optimizeQuality; fill-rule:evenodd; clip-rule:evenodd" xmlns:xlink="http://www.w3.org/1999/xlink">
<g><path style="opacity:0.827" fill="#fefffe" d="M 24.5,-0.5 C 29.1667,-0.5 33.8333,-0.5 38.5,-0.5C 41.2341,0.704964 43.9007,2.20496 46.5,4C 51.4125,11.0638 57.0792,17.2304 63.5,22.5C 63.5,26.5 63.5,30.5 63.5,34.5C 59.7576,41.7049 53.7576,44.7049 45.5,43.5C 45.5,41.5 45.5,39.5 45.5,37.5C 57.2144,35.8211 59.5478,30.3211 52.5,21C 48.464,20.7949 46.2974,18.6282 46,14.5C 40.2645,6.59525 32.7645,4.42859 23.5,8C 19.5123,10.9867 16.679,14.82 15,19.5C 7.80518,21.031 5.13851,25.3643 7,32.5C 9.65041,35.8768 13.1504,37.5434 17.5,37.5C 17.5,39.5 17.5,41.5 17.5,43.5C 9.24236,44.7049 3.24236,41.7049 -0.5,34.5C -0.5,30.5 -0.5,26.5 -0.5,22.5C 5.92079,17.2304 11.5875,11.0638 16.5,4C 19.0993,2.20496 21.7659,0.704964 24.5,-0.5 Z"/></g>
<g><path style="opacity:0.888" fill="#fefffe" d="M 34.5,54.5 C 32.5,54.5 30.5,54.5 28.5,54.5C 28.6661,48.8236 28.4994,43.1569 28,37.5C 26.3229,41.0511 23.4896,42.3845 19.5,41.5C 19.3379,39.4727 19.5045,37.4727 20,35.5C 23.5027,31.4771 27.336,28.1438 31.5,25.5C 35.664,28.1438 39.4973,31.4771 43,35.5C 43.4955,37.4727 43.6621,39.4727 43.5,41.5C 39.5104,42.3845 36.6771,41.0511 35,37.5C 34.5006,43.1569 34.3339,48.8236 34.5,54.5 Z"/></g>
</svg>
