<?xml version="1.0" encoding="UTF-8"?>
<!DOCTYPE svg PUBLIC "-//W3C//DTD SVG 1.1//EN" "http://www.w3.org/Graphics/SVG/1.1/DTD/svg11.dtd">
<svg xmlns="http://www.w3.org/2000/svg" version="1.1" width="73px" height="63px" style="shape-rendering:geometricPrecision; text-rendering:geometricPrecision; image-rendering:optimizeQuality; fill-rule:evenodd; clip-rule:evenodd" xmlns:xlink="http://www.w3.org/1999/xlink">
<g><path style="opacity:0.958" fill="#fefffe" d="M 13.5,-0.5 C 17.8333,-0.5 22.1667,-0.5 26.5,-0.5C 29.7652,1.58407 32.9319,3.9174 36,6.5C 38.8249,3.52399 41.9915,1.19065 45.5,-0.5C 49.8333,-0.5 54.1667,-0.5 58.5,-0.5C 65.6841,2.68087 70.3508,8.01421 72.5,15.5C 72.5,18.1667 72.5,20.8333 72.5,23.5C 71.6446,26.1755 70.478,28.8421 69,31.5C 58.6312,41.7016 48.4645,52.0349 38.5,62.5C 36.8333,62.5 35.1667,62.5 33.5,62.5C 24.2284,53.7296 15.0618,44.7296 6,35.5C 3.28937,32.0671 1.1227,28.4005 -0.5,24.5C -0.5,21.1667 -0.5,17.8333 -0.5,14.5C 2.07924,7.58628 6.74591,2.58628 13.5,-0.5 Z"/></g>
</svg>
