<?xml version="1.0" encoding="UTF-8"?>
<!DOCTYPE svg PUBLIC "-//W3C//DTD SVG 1.1//EN" "http://www.w3.org/Graphics/SVG/1.1/DTD/svg11.dtd">
<svg xmlns="http://www.w3.org/2000/svg" version="1.1" width="64px" height="54px" style="shape-rendering:geometricPrecision; text-rendering:geometricPrecision; image-rendering:optimizeQuality; fill-rule:evenodd; clip-rule:evenodd" xmlns:xlink="http://www.w3.org/1999/xlink">
<g><path style="opacity:0.919" fill="#fefffe" d="M -0.5,-0.5 C 1.5,-0.5 3.5,-0.5 5.5,-0.5C 5.33355,8.83928 5.50021,18.1726 6,27.5C 10.1915,24.4882 14.6915,22.1549 19.5,20.5C 24.1667,22.3138 28.5001,24.8138 32.5,28C 33.8333,28.6667 35.1667,28.6667 36.5,28C 43.5,23 50.5,18 57.5,13C 59.4727,12.5045 61.4727,12.3379 63.5,12.5C 63.5,14.5 63.5,16.5 63.5,18.5C 54.7181,24.0654 46.0515,29.8987 37.5,36C 35.5,36.6667 33.5,36.6667 31.5,36C 28.1667,33.6667 24.8333,31.3333 21.5,29C 20.1667,28.3333 18.8333,28.3333 17.5,29C 13.8333,31.1667 10.1667,33.3333 6.5,35.5C 5.50909,39.4454 5.17575,43.4454 5.5,47.5C 24.8333,47.5 44.1667,47.5 63.5,47.5C 63.5,49.5 63.5,51.5 63.5,53.5C 42.1667,53.5 20.8333,53.5 -0.5,53.5C -0.5,35.5 -0.5,17.5 -0.5,-0.5 Z"/></g>
</svg>
