<?xml version="1.0" standalone="no"?>
<!DOCTYPE svg PUBLIC "-//W3C//DTD SVG 20010904//EN"
 "http://www.w3.org/TR/2001/REC-SVG-20010904/DTD/svg10.dtd">
<svg version="1.0" xmlns="http://www.w3.org/2000/svg"
 width="19.000000pt" height="13.000000pt" viewBox="0 0 19.000000 13.000000"
 preserveAspectRatio="xMidYMid meet">

<g transform="translate(0.000000,13.000000) scale(0.100000,-0.100000)"
fill="#000000" stroke="none">
<path d="M0 65 l0 -65 95 0 95 0 0 65 0 65 -95 0 -95 0 0 -65z m104 2 c6 3 20
13 31 22 18 15 19 15 7 0 -11 -14 -8 -22 15 -50 l27 -34 -32 29 c-25 23 -35
27 -44 18 -9 -9 -15 -9 -25 0 -11 9 -21 5 -45 -18 l-32 -29 27 34 c23 28 26
36 15 49 -7 9 0 7 16 -6 15 -12 33 -19 40 -15z"/>
</g>
</svg>
